# Blender v2.82 (sub 7) OBJ File: 'MHDFurnitureModels.blend'
# www.blender.org
mtllib bed.mtl
o Bed_Cube.004
v 0.300000 0.000000 0.400000
v 0.400000 0.000000 0.400000
v 0.300000 0.000000 0.300000
v 0.400000 0.000000 0.300000
v 0.300000 0.000000 -0.300000
v 0.400000 0.000000 -0.300000
v 0.300000 0.000000 -0.400000
v 0.400000 0.000000 -0.400000
v -1.300000 0.000000 0.400001
v -1.300001 0.000000 -0.400000
v -1.300001 0.000000 -0.300000
v -1.300000 0.000000 0.300000
v -1.400000 0.000000 0.400001
v -1.400001 0.000000 -0.400000
v -1.400001 0.000000 -0.300000
v -1.400000 0.000000 0.300001
v 0.300000 0.100000 0.400000
v 0.400000 0.100000 0.400000
v 0.300000 0.100000 0.300000
v 0.400000 0.100000 0.300000
v 0.300000 0.100000 -0.300000
v 0.400000 0.100000 -0.300000
v 0.300000 0.100000 -0.400000
v 0.400000 0.100000 -0.400000
v -1.300001 0.100000 -0.400000
v -1.300001 0.100000 -0.300000
v -1.300000 0.100000 0.300000
v -1.300000 0.100000 0.400001
v -1.400000 0.100000 0.400001
v -1.400001 0.100000 -0.400000
v -1.400001 0.100000 -0.300000
v -1.400000 0.100000 0.300001
v 0.300000 0.200000 0.400000
v 0.400000 0.200000 0.400000
v 0.400000 0.200000 0.300000
v 0.400000 0.200000 -0.300000
v 0.300000 0.200000 -0.400000
v 0.400000 0.200000 -0.400000
v -1.300001 0.200000 -0.400000
v -1.300000 0.200000 0.400001
v -1.400000 0.200000 0.400001
v -1.400001 0.200000 -0.400000
v -1.400001 0.200000 -0.300000
v -1.400000 0.200000 0.300001
v 0.300000 0.220241 0.400000
v 0.400000 0.220241 0.400000
v 0.385754 0.200160 -0.293842
v 0.400000 0.220241 0.300000
v 0.385754 0.220081 -0.293842
v 0.400000 0.220241 -0.300000
v 0.300000 0.220241 -0.400000
v 0.400000 0.220241 -0.400000
v -1.300001 0.220241 -0.400000
v 0.385754 0.200160 0.391788
v 0.287337 0.200160 0.391789
v -1.300000 0.220241 0.400001
v -1.400000 0.220241 0.400001
v -1.400001 0.220241 -0.400000
v -1.400001 0.220241 -0.300000
v -1.400000 0.220241 0.300001
v 0.300000 0.424205 0.400000
v 0.400000 0.424205 0.400000
v 0.300000 0.424205 0.300000
v 0.400000 0.424205 0.300000
v 0.300000 0.424205 -0.300000
v 0.400000 0.424205 -0.300000
v 0.300000 0.424205 -0.400000
v 0.400000 0.424205 -0.400000
v -1.300001 0.424205 -0.400000
v -1.300001 0.424205 -0.300000
v -1.300000 0.424205 0.300000
v -1.300000 0.424205 0.400001
v -1.400000 0.424205 0.400001
v -1.400001 0.424205 -0.400000
v -1.400001 0.424205 -0.300000
v -1.400000 0.424205 0.300001
v 0.385754 0.200160 -0.391789
v 0.385754 0.220081 -0.391789
v 0.287337 0.200160 -0.391789
v 0.287337 0.220081 0.391789
v 0.385754 0.200160 0.293841
v -1.287338 0.200160 0.391789
v -1.287338 0.220081 0.391789
v -1.287338 0.220081 -0.391788
v -1.287338 0.200160 -0.391788
v 0.287337 0.220081 -0.391789
v -1.385755 0.200160 0.391789
v -1.385755 0.200160 -0.391788
v -1.385755 0.200160 -0.293841
v -1.385755 0.200160 0.293842
v 0.385754 0.220081 0.293841
v 0.385754 0.220081 0.391788
v -1.385755 0.220081 0.391789
v -1.385755 0.220081 0.293842
v -1.385755 0.220081 -0.293841
v -1.385755 0.220081 -0.391788
v -0.925728 0.100000 -0.300000
v -0.925728 0.200000 -0.400000
v -0.925728 0.100000 -0.400000
v -0.925728 0.100000 0.400000
v -0.925728 0.200000 0.400000
v -0.925728 0.100000 0.300000
v -0.925728 0.220241 -0.400000
v -0.925728 0.220241 0.400000
v -0.925728 0.424205 -0.300000
v -0.925728 0.424205 -0.400000
v -0.925728 0.424205 0.400000
v -0.925728 0.424205 0.300000
v -0.918989 0.200160 -0.391788
v -0.918989 0.200160 0.391789
v -0.918989 0.220081 -0.391788
v -0.918989 0.220081 0.391789
v -1.270512 0.525940 -0.270511
v -1.270512 0.525940 0.270512
v -0.955217 0.525940 -0.270511
v -0.955217 0.525940 0.270512
v -1.300001 0.525940 -0.300000
v -1.300000 0.525940 0.300000
v -0.925728 0.525940 -0.300000
v -0.925728 0.525940 0.300000
v -1.249131 0.546999 -0.249131
v -1.249131 0.546999 0.249131
v -0.976597 0.546999 -0.249131
v -0.976597 0.546999 0.249131
v -1.270512 0.546999 -0.270511
v -1.270512 0.546999 0.270512
v -0.955217 0.546999 -0.270511
v -0.955217 0.546999 0.270512
v -1.249131 0.566128 -0.249131
v -1.249131 0.566128 0.249131
v -0.976597 0.566128 -0.249131
v -0.976597 0.566128 0.249131
v -1.300000 0.443452 0.300000
v -0.925728 0.443452 0.300000
v -1.300001 0.443452 -0.300000
v -0.925728 0.443452 -0.300000
v -1.289603 0.424205 -0.283330
v -1.289602 0.424205 0.283331
v -0.936126 0.424205 -0.283330
v -0.936126 0.424205 0.283331
v -0.936126 0.443452 0.283331
v -0.936126 0.443452 -0.283330
v -1.289602 0.443452 0.283331
v -1.289603 0.443452 -0.283330
v 0.364665 0.103496 0.427082
v 0.364665 0.103496 -0.427083
v 0.364665 0.459539 0.427082
v 0.364665 0.459539 -0.427083
v -0.852614 0.103496 -0.427082
v -0.852614 0.103496 0.427083
v -0.852614 0.459539 -0.427082
v -0.852614 0.459539 0.427083
v 0.364665 0.103496 -0.062788
v 0.364665 0.103496 0.062787
v 0.364665 0.414400 0.080703
v 0.364665 0.414400 -0.080704
v -0.852614 0.103496 0.062788
v -0.852614 0.103496 -0.062787
v -0.852614 0.414400 -0.080703
v -0.852614 0.414400 0.080704
vt 0.375000 0.725000
vt 0.375000 0.725000
vt 0.375000 0.725000
vt 0.375000 0.725000
vt 0.175000 0.525000
vt 0.175000 0.525000
vt 0.175000 0.550000
vt 0.175000 0.550000
vt 0.150000 0.700000
vt 0.150000 0.700000
vt 0.175000 0.700000
vt 0.175000 0.700000
vt 0.375000 0.550000
vt 0.375000 0.550000
vt 0.375000 0.550000
vt 0.375000 0.550000
vt 0.375000 0.525000
vt 0.375000 0.525000
vt 0.375000 0.550000
vt 0.150000 0.725000
vt 0.150000 0.725000
vt 0.150000 0.700000
vt 0.375000 0.700000
vt 0.375000 0.700000
vt 0.375000 0.725000
vt 0.175000 0.725000
vt 0.175000 0.725000
vt 0.175000 0.725000
vt 0.150000 0.725000
vt 0.375000 0.525000
vt 0.375000 0.700000
vt 0.375000 0.700000
vt 0.375000 0.700000
vt 0.375000 0.525000
vt 0.375000 0.525000
vt 0.150000 0.525000
vt 0.150000 0.525000
vt 0.150000 0.550000
vt 0.150000 0.550000
vt 0.375000 0.550000
vt 0.375000 0.700000
vt 0.150000 0.725000
vt 0.150000 0.700000
vt 0.375000 0.725000
vt 0.150000 0.550000
vt 0.150000 0.525000
vt 0.375000 0.725000
vt 0.175000 0.525000
vt 0.175000 0.725000
vt 0.375000 0.525000
vt 0.328216 0.525000
vt 0.328216 0.525000
vt 0.328216 0.725000
vt 0.328216 0.725000
vt 0.328216 0.700000
vt 0.328216 0.550000
vt 0.375000 0.525000
vt 0.375000 0.525000
vt 0.150000 0.550000
vt 0.150000 0.525000
vt 0.375000 0.725000
vt 0.175000 0.525000
vt 0.328216 0.525000
vt 0.328216 0.725000
vt 0.328216 0.700000
vt 0.328216 0.700000
vt 0.375000 0.700000
vt 0.375000 0.700000
vt 0.375000 0.550000
vt 0.375000 0.550000
vt 0.328216 0.550000
vt 0.328216 0.550000
vt 0.328216 0.550000
vt 0.375000 0.550000
vt 0.371314 0.557372
vt 0.371314 0.557372
vt 0.371314 0.692628
vt 0.371314 0.692628
vt 0.375000 0.700000
vt 0.328216 0.700000
vt 0.331902 0.692628
vt 0.331902 0.557372
vt 0.334575 0.687283
vt 0.334575 0.687283
vt 0.334575 0.562717
vt 0.334575 0.562717
vt 0.331902 0.692628
vt 0.331902 0.557372
vt 0.368641 0.687283
vt 0.368641 0.562717
vt 0.368641 0.687283
vt 0.368641 0.562717
vt 0.375000 0.700000
vt 0.328216 0.700000
vt 0.328216 0.550000
vt 0.375000 0.550000
vt 0.150000 0.525000
vt 0.150000 0.525000
vt 0.296679 0.525000
vt 0.296679 0.525000
vt 0.150000 0.725000
vt 0.296679 0.725000
vt 0.000000 0.000000
vt 0.000000 0.000000
vt 0.150000 0.525000
vt 0.296679 0.525000
vt 0.296679 0.525000
vt 0.150000 0.525000
vt 0.296679 0.725000
vt 0.150000 0.725000
vt 0.000000 0.000000
vt 0.000000 0.000000
vt 0.375000 0.550000
vt 0.375000 0.550000
vt 0.375000 0.525000
vt 0.375000 0.525000
vt 0.150000 0.550000
vt 0.150000 0.550000
vt 0.150000 0.700000
vt 0.150000 0.700000
vt 0.150000 0.725000
vt 0.150000 0.725000
vt 0.375000 0.725000
vt 0.375000 0.725000
vt 0.375000 0.700000
vt 0.375000 0.700000
vt 0.150000 0.725000
vt 0.150000 0.700000
vt 0.375000 0.725000
vt 0.375000 0.725000
vt 0.375000 0.725000
vt 0.150000 0.525000
vt 0.150000 0.525000
vt 0.175000 0.525000
vt 0.175000 0.525000
vt 0.375000 0.525000
vt 0.375000 0.525000
vt 0.375000 0.525000
vt 0.175000 0.725000
vt 0.175000 0.725000
vt 0.328216 0.725000
vt 0.328216 0.725000
vt 0.150000 0.550000
vt 0.175000 0.725000
vt 0.375000 0.525000
vt 0.328216 0.525000
vt 0.328216 0.525000
vt 0.175000 0.700000
vt 0.175000 0.550000
vt 0.375000 0.550000
vt 0.375000 0.550000
vt 0.375000 0.700000
vt 0.375000 0.700000
vt 0.328216 0.725000
vt 0.375000 0.725000
vt 0.328216 0.700000
vt 0.328216 0.550000
vt 0.150000 0.525000
vt 0.175000 0.525000
vt 0.328216 0.525000
vn -0.0000 0.0000 -1.0000
vn -1.0000 0.0000 0.0000
vn 0.0000 0.0000 1.0000
vn 1.0000 0.0000 -0.0000
vn -0.0112 0.9999 0.0000
vn 0.0112 0.9999 0.0000
vn -0.0000 0.9998 -0.0195
vn 0.0000 -1.0000 0.0000
vn 0.0000 0.9998 0.0195
vn 0.0000 1.0000 0.0000
vn -0.0000 0.4191 -0.9080
vn 0.0000 0.4191 0.9080
vn -0.0112 -0.9999 0.0000
vn 0.0112 -0.9999 0.0000
vn -0.0000 -0.9998 -0.0195
vn 0.0000 -0.9998 0.0195
g Bed_Cube.004_wood
usemtl wood
s off
f 14/1/1 30/2/1 25/3/1 10/4/1
f 1/5/2 17/6/2 19/7/2 3/8/2
f 6/9/3 22/10/3 21/11/3 5/12/3
f 16/13/1 32/14/1 27/15/1 12/16/1
f 29/17/2 41/18/2 44/19/2 32/14/2
f 24/20/4 38/21/4 36/22/4 22/10/4
f 31/23/2 43/24/2 42/25/2 30/2/2
f 23/26/1 37/27/1 38/21/1 24/20/1
f 7/28/1 23/26/1 24/20/1 8/29/1
f 13/30/2 29/17/2 32/14/2 16/13/2
f 11/31/3 26/32/3 31/23/3 15/33/3
f 12/16/4 27/15/4 28/34/4 9/35/4
f 15/33/2 31/23/2 30/2/2 14/1/2
f 8/29/4 24/20/4 22/10/4 6/9/4
f 10/4/4 25/3/4 26/32/4 11/31/4
f 2/36/3 18/37/3 17/6/3 1/5/3
f 5/12/2 21/11/2 23/26/2 7/28/2
f 9/35/3 28/34/3 29/17/3 13/30/3
f 3/8/1 19/7/1 20/38/1 4/39/1
f 4/39/4 20/38/4 18/37/4 2/36/4
f 44/19/5 90/40/5 89/41/5 43/24/5
f 38/21/6 77/42/6 47/43/6 36/22/6
f 43/24/5 89/41/5 88/44/5 42/25/5
f 20/38/4 35/45/4 34/46/4 18/37/4
f 30/2/1 42/25/1 39/47/1 25/3/1
f 18/37/3 34/46/3 33/48/3 17/6/3
f 31/23/2 32/14/2 44/19/2 43/24/2
f 37/27/7 79/49/7 77/42/7 38/21/7
f 28/34/3 40/50/3 41/18/3 29/17/3
f 100/51/3 17/6/3 33/48/3 101/52/3
f 98/53/1 37/27/1 23/26/1 99/54/1
f 36/22/4 35/45/4 20/38/4 22/10/4
f 22/10/8 20/38/8 19/7/8 21/11/8
f 99/54/8 23/26/8 21/11/8 97/55/8
f 97/55/8 102/56/8 27/15/8 26/32/8
f 40/50/9 82/57/9 87/58/9 41/18/9
f 26/32/8 27/15/8 32/14/8 31/23/8
f 102/56/8 19/7/8 17/6/8 100/51/8
f 36/22/6 47/43/6 81/59/6 35/45/6
f 41/18/5 87/58/5 90/40/5 44/19/5
f 35/45/6 81/59/6 54/60/6 34/46/6
f 42/25/7 88/44/7 85/61/7 39/47/7
f 34/46/9 54/60/9 55/62/9 33/48/9
f 101/52/9 110/63/9 82/57/9 40/50/9
f 98/53/7 109/64/7 79/49/7 37/27/7
f 39/47/7 85/61/7 109/64/7 98/53/7
f 33/48/9 55/62/9 110/63/9 101/52/9
f 27/15/8 102/56/8 100/51/8 28/34/8
f 21/11/8 19/7/8 102/56/8 97/55/8
f 25/3/8 99/54/8 97/55/8 26/32/8
f 39/47/1 98/53/1 99/54/1 25/3/1
f 28/34/3 100/51/3 101/52/3 40/50/3
f 136/65/8 142/66/8 144/67/8 135/68/8
f 135/68/8 144/67/8 143/69/8 133/70/8
f 133/70/8 143/69/8 141/71/8 134/72/8
f 134/72/8 141/71/8 142/66/8 136/65/8
g Bed_Cube.004_Pillow
usemtl Pillow
f 134/72/3 120/73/3 118/74/3 133/70/3
f 114/75/2 126/76/2 125/77/2 113/78/2
f 133/70/2 118/74/2 117/79/2 135/68/2
f 136/65/4 119/80/4 120/73/4 134/72/4
f 135/68/1 117/79/1 119/80/1 136/65/1
f 113/78/10 117/79/10 118/74/10 114/75/10
f 115/81/10 119/80/10 117/79/10 113/78/10
f 114/75/10 118/74/10 120/73/10 116/82/10
f 116/82/10 120/73/10 119/80/10 115/81/10
f 123/83/4 131/84/4 132/85/4 124/86/4
f 115/81/4 127/87/4 128/88/4 116/82/4
f 113/78/1 125/77/1 127/87/1 115/81/1
f 116/82/3 128/88/3 126/76/3 114/75/3
f 121/89/10 125/77/10 126/76/10 122/90/10
f 123/83/10 127/87/10 125/77/10 121/89/10
f 122/90/10 126/76/10 128/88/10 124/86/10
f 124/86/10 128/88/10 127/87/10 123/83/10
f 131/84/10 129/91/10 130/92/10 132/85/10
f 121/89/1 129/91/1 131/84/1 123/83/1
f 124/86/3 132/85/3 130/92/3 122/90/3
f 122/90/2 130/92/2 129/91/2 121/89/2
f 137/93/1 144/67/1 142/66/1 139/94/1
f 139/94/4 142/66/4 141/71/4 140/95/4
f 138/96/2 143/69/2 144/67/2 137/93/2
f 140/95/3 141/71/3 143/69/3 138/96/3
g Bed_Cube.004_Cover
usemtl Cover
f 145/97/3 147/98/3 152/99/3 150/100/3
f 147/98/10 148/101/10 151/102/10 152/99/10
f 148/101/1 146/103/1 149/104/1 151/102/1
f 153/105/11 158/106/11 160/107/11 155/108/11
f 155/108/8 160/107/8 159/109/8 156/110/8
f 156/110/12 159/109/12 157/111/12 154/112/12
f 148/101/4 156/110/4 154/112/4 146/103/4
f 146/103/8 154/112/8 157/111/8 149/104/8
f 145/97/4 153/105/4 155/108/4 147/98/4
f 150/100/8 158/106/8 153/105/8 145/97/8
f 147/98/4 155/108/4 156/110/4 148/101/4
f 151/102/2 159/109/2 160/107/2 152/99/2
f 152/99/2 160/107/2 158/106/2 150/100/2
f 149/104/2 157/111/2 159/109/2 151/102/2
g Bed_Cube.004_Matress
usemtl Matress
f 60/113/13 94/114/13 93/115/13 57/116/13
f 48/117/14 91/118/14 49/119/14 50/120/14
f 50/120/14 49/119/14 78/121/14 52/122/14
f 58/123/13 96/124/13 95/125/13 59/126/13
f 52/122/4 68/127/4 66/128/4 50/120/4
f 58/123/1 74/129/1 69/130/1 53/131/1
f 46/132/3 62/133/3 61/134/3 45/135/3
f 56/136/3 72/137/3 73/138/3 57/116/3
f 51/139/1 67/140/1 68/127/1 52/122/1
f 103/141/1 106/142/1 67/140/1 51/139/1
f 48/117/4 64/143/4 62/133/4 46/132/4
f 50/120/4 66/128/4 64/143/4 48/117/4
f 52/122/15 78/121/15 86/144/15 51/139/15
f 57/116/16 93/115/16 83/145/16 56/136/16
f 104/146/3 107/147/3 72/137/3 56/136/3
f 66/128/10 68/127/10 67/140/10 65/148/10
f 62/133/10 64/143/10 63/149/10 61/134/10
f 71/150/10 76/151/10 73/138/10 72/137/10
f 69/130/10 74/129/10 75/152/10 70/153/10
f 103/141/15 111/154/15 84/155/15 53/131/15
f 75/152/10 76/151/10 71/150/10 70/153/10
f 105/156/10 65/148/10 67/140/10 106/142/10
f 65/148/10 63/149/10 64/143/10 66/128/10
f 107/147/10 61/134/10 63/149/10 108/157/10
f 59/126/2 75/152/2 74/129/2 58/123/2
f 60/113/2 76/151/2 75/152/2 59/126/2
f 57/116/2 73/138/2 76/151/2 60/113/2
f 54/60/3 92/158/3 80/159/3 55/62/3
f 47/43/4 49/119/4 91/118/4 81/59/4
f 82/57/3 83/145/3 93/115/3 87/58/3
f 79/49/1 86/144/1 78/121/1 77/42/1
f 110/63/3 112/160/3 83/145/3 82/57/3
f 81/59/4 91/118/4 92/158/4 54/60/4
f 87/58/2 93/115/2 94/114/2 90/40/2
f 89/41/2 95/125/2 96/124/2 88/44/2
f 90/40/2 94/114/2 95/125/2 89/41/2
f 88/44/1 96/124/1 84/155/1 85/61/1
f 77/42/4 78/121/4 49/119/4 47/43/4
f 109/64/1 111/154/1 86/144/1 79/49/1
f 46/132/14 92/158/14 91/118/14 48/117/14
f 53/131/15 84/155/15 96/124/15 58/123/15
f 59/126/13 95/125/13 94/114/13 60/113/13
f 45/135/16 80/159/16 92/158/16 46/132/16
f 104/146/16 112/160/16 80/159/16 45/135/16
f 56/136/16 83/145/16 112/160/16 104/146/16
f 85/61/1 84/155/1 111/154/1 109/64/1
f 55/62/3 80/159/3 112/160/3 110/63/3
f 65/148/10 105/156/10 108/157/10 63/149/10
f 72/137/10 107/147/10 108/157/10 71/150/10
f 70/153/10 105/156/10 106/142/10 69/130/10
f 51/139/15 86/144/15 111/154/15 103/141/15
f 45/135/3 61/134/3 107/147/3 104/146/3
f 53/131/1 69/130/1 106/142/1 103/141/1
f 105/156/10 139/94/10 140/95/10 108/157/10
f 71/150/10 138/96/10 137/93/10 70/153/10
f 70/153/10 137/93/10 139/94/10 105/156/10
f 108/157/10 140/95/10 138/96/10 71/150/10
