# Blender v2.82 (sub 7) OBJ File: 'MHDFurnitureModels.blend'
# www.blender.org
mtllib table.mtl
o Table_Cube.022
v -0.300000 0.000000 -0.400000
v -0.400000 0.000000 -0.400000
v -0.300000 0.000000 -0.300000
v -0.400000 0.000000 -0.300000
v -0.300000 0.000000 0.300000
v -0.400000 0.000000 0.300000
v -0.300000 0.000000 0.400000
v -0.400000 0.000000 0.400000
v 1.300001 0.000000 -0.400000
v 1.300001 0.000000 0.400000
v 1.300001 0.000000 0.300000
v 1.300001 0.000000 -0.300000
v 1.400001 0.000000 -0.400000
v 1.400001 0.000000 0.400000
v 1.400001 0.000000 0.300000
v 1.400001 0.000000 -0.300000
v -0.300000 0.600000 -0.400000
v -0.400000 0.600000 -0.400000
v -0.300000 0.600000 -0.300000
v -0.400000 0.600000 -0.300000
v -0.300000 0.600000 0.300000
v -0.400000 0.600000 0.300000
v -0.300000 0.600000 0.400000
v -0.400000 0.600000 0.400000
v 1.300001 0.600000 0.400000
v 1.300001 0.600000 0.300000
v 1.300001 0.600000 -0.300000
v 1.300001 0.600000 -0.400000
v 1.400001 0.600000 0.300000
v 1.400001 0.600000 -0.300000
v 1.400001 0.600000 -0.400000
v 1.400001 0.600000 0.400000
v -0.300000 0.700000 -0.400000
v -0.400000 0.700000 -0.400000
v -0.490000 0.805000 -0.360000
v -0.400000 0.700000 -0.300000
v -0.490000 0.695000 -0.360000
v -0.400000 0.700000 0.300000
v -0.300000 0.700000 0.400000
v -0.400000 0.700000 0.400000
v 1.300001 0.700000 0.400000
v -0.490000 0.695000 -0.480000
v -0.380000 0.695000 -0.480000
v 1.300001 0.700000 -0.400000
v 1.400001 0.700000 0.300000
v 1.400001 0.700000 -0.300000
v 1.400001 0.700000 -0.400000
v 1.400001 0.700000 0.400000
v -0.300000 0.800000 -0.400000
v -0.400000 0.800000 -0.400000
v -0.300000 0.800000 -0.300000
v -0.400000 0.800000 -0.300000
v -0.300000 0.800000 0.300000
v -0.400000 0.800000 0.300000
v -0.300000 0.800000 0.400000
v -0.400000 0.800000 0.400000
v 1.300001 0.800000 0.400000
v 1.300001 0.800000 0.300000
v 1.300001 0.800000 -0.300000
v 1.300001 0.800000 -0.400000
v 1.400001 0.800000 0.300000
v 1.400001 0.800000 -0.300000
v 1.400001 0.800000 -0.400000
v 1.400001 0.800000 0.400000
v 1.300001 0.700000 0.300000
v 1.300001 0.700000 -0.300000
v -0.300000 0.700000 0.300000
v -0.300000 0.700000 -0.300000
v 1.380001 0.805000 0.480000
v 1.380001 0.695000 0.480000
v -0.380000 0.695000 0.480000
v -0.490000 0.695000 0.480000
v -0.490000 0.695000 0.360000
v -0.380000 0.805000 0.480000
v 1.490001 0.805000 -0.480000
v 1.490001 0.695000 -0.480000
v 1.490001 0.695000 -0.360000
v 1.490001 0.805000 -0.360000
v -0.490000 0.805000 -0.480000
v -0.380000 0.805000 -0.480000
v 1.380001 0.695000 -0.480000
v 1.490001 0.695000 0.480000
v 1.490001 0.695000 0.360000
v -0.490000 0.805000 0.480000
v 1.490001 0.805000 0.360000
v 1.490001 0.805000 0.480000
v -0.490000 0.805000 0.360000
v 1.380001 0.805000 -0.480000
vt 0.164683 0.010638
vt 0.164683 0.366809
vt 0.224045 0.366809
vt 0.224045 0.010638
vt 0.893042 0.046383
vt 0.893042 0.343193
vt 0.893042 0.343193
vt 0.893042 0.046383
vt 0.224045 0.010638
vt 0.224045 0.366809
vt 0.164683 0.366809
vt 0.164683 0.010638
vt 0.639579 0.010638
vt 0.639579 0.366809
vt 0.580217 0.366809
vt 0.580217 0.010638
vt 0.580217 0.366809
vt 0.580217 0.426171
vt 0.639579 0.426171
vt 0.639579 0.366809
vt 0.942510 0.343193
vt 0.942510 0.392661
vt 0.893042 0.392661
vt 0.893042 0.343193
vt 0.052081 0.392661
vt 0.007559 0.390188
vt 0.007559 0.390188
vt 0.052081 0.392661
vt 0.893042 0.392661
vt 0.942510 0.392661
vt 0.942510 0.343193
vt 0.893042 0.046383
vt 0.893042 0.343193
vt 0.893042 0.046383
vt 0.101549 0.046383
vt 0.101549 0.343193
vt 0.101549 0.343193
vt 0.101549 0.046383
vt 0.052081 0.046383
vt 0.052081 0.343193
vt 0.101549 0.343193
vt 0.101549 0.046383
vt 0.942510 0.046383
vt 0.101549 0.046383
vt 0.101549 0.343193
vt 0.052081 0.343193
vt 0.052081 0.046383
vt 0.580217 0.010638
vt 0.639579 0.010638
vt 0.942510 0.343193
vt 0.942510 0.046383
vt 0.052081 0.046383
vt 0.052081 0.343193
vt 0.942510 0.046383
vt 0.942510 0.343193
vt 0.052081 0.343193
vt 0.052081 0.046383
vt 0.942510 0.046383
vt 0.080853 0.224650
vt 0.043751 0.199915
vt 0.043751 0.150447
vt 0.080853 0.183426
vt 0.893042 0.392661
vt 0.893042 0.392661
vt 0.101549 0.392661
vt 0.061975 0.390188
vt 0.822877 0.224650
vt 0.859978 0.199915
vt 0.859978 0.496725
vt 0.822877 0.471991
vt 0.224045 0.426171
vt 0.164683 0.426171
vt 0.007559 0.390188
vt 0.052081 0.392661
vt 0.052081 0.392661
vt 0.101549 0.392661
vt 0.639579 0.426171
vt 0.580217 0.426171
vt 0.122076 0.183426
vt 0.122076 0.224650
vt 0.932617 0.390188
vt 0.781654 0.224650
vt 0.781654 0.183426
vt 0.101549 0.392661
vt 0.101549 0.392661
vt 0.987032 0.390188
vt 0.987032 0.390188
vt 0.942510 0.392661
vt 0.164683 0.426171
vt 0.224045 0.426171
vt 0.224045 0.366809
vt 0.580217 0.366809
vt 0.080853 0.513215
vt 0.080853 0.471991
vt 0.122076 0.471991
vt 0.122076 0.513215
vt 0.822877 0.183426
vt 0.781654 0.471991
vt 0.822877 0.513215
vt 0.781654 0.513215
vt 0.007559 0.390188
vt 0.061975 0.390188
vt 0.859978 0.546194
vt 0.089097 0.546194
vt 0.043751 0.546194
vt 0.814633 0.546194
vt 0.942510 0.392661
vt 0.987032 0.390188
vt 0.987032 0.390188
vt 0.117193 0.423203
vt 0.117193 0.488501
vt 0.188428 0.488501
vt 0.188428 0.423203
vt 0.061975 0.444603
vt 0.007559 0.444603
vt 0.615834 0.488501
vt 0.615834 0.423203
vt 0.932617 0.444603
vt 0.687068 0.423203
vt 0.687068 0.488501
vt 0.615834 0.488501
vt 0.615834 0.423203
vt 0.007559 0.444603
vt 0.061975 0.444603
vt 0.188428 0.423203
vt 0.188428 0.488501
vt 0.117193 0.488501
vt 0.117193 0.423203
vt 0.932617 0.444603
vt 0.932617 0.390188
vt 0.987032 0.444603
vt 0.987032 0.444603
vt 0.687068 0.488501
vt 0.687068 0.423203
vt 0.089097 0.150447
vt 0.043751 0.496725
vt 0.814633 0.150447
vt 0.859978 0.150447
vn -1.0000 0.0000 0.0000
vn 1.0000 0.0000 0.0000
vn 0.0000 0.0000 1.0000
vn 0.0555 -0.9985 0.0000
vn 0.0000 0.0000 -1.0000
vn 0.0555 0.9985 0.0000
vn 0.0000 -0.9981 -0.0624
vn -0.0555 0.9985 0.0000
vn 0.0000 1.0000 0.0000
vn -0.0555 -0.9985 0.0000
vn 0.0000 -1.0000 0.0000
vn 0.0000 -0.9981 0.0624
vn 0.0000 0.9981 0.0624
vn 0.0000 0.9981 -0.0624
g Table_Cube.022_wood
usemtl wood
s off
f 8/1/1 24/2/1 22/3/1 6/4/1
f 12/5/1 27/6/1 28/7/1 9/8/1
f 15/9/2 29/10/2 32/11/2 14/12/2
f 13/13/2 31/14/2 30/15/2 16/16/2
f 20/17/1 36/18/1 34/19/1 18/20/1
f 32/21/3 48/22/3 41/23/3 25/24/3
f 40/25/4 72/26/4 73/27/4 38/28/4
f 28/7/5 44/29/5 47/30/5 31/31/5
f 10/32/1 25/24/1 26/33/1 11/34/1
f 5/35/2 21/36/2 23/37/2 7/38/2
f 2/39/5 18/40/5 17/41/5 1/42/5
f 14/43/3 32/21/3 25/24/3 10/32/3
f 3/44/3 19/45/3 20/46/3 4/47/3
f 4/48/1 20/17/1 18/20/1 2/49/1
f 11/34/5 26/33/5 29/50/5 15/51/5
f 6/52/5 22/53/5 21/36/5 5/35/5
f 1/42/2 17/41/2 19/45/2 3/44/2
f 16/54/3 30/55/3 27/6/3 12/5/3
f 7/38/3 23/37/3 24/56/3 8/57/3
f 9/8/5 28/7/5 31/31/5 13/58/5
f 54/59/6 87/60/6 84/61/6 56/62/6
f 26/33/1 65/63/1 66/64/1 27/6/1
f 39/65/7 71/66/7 72/26/7 40/25/7
f 61/67/8 85/68/8 78/69/8 62/70/8
f 29/10/2 45/71/2 48/72/2 32/11/2
f 38/28/4 73/27/4 37/73/4 36/74/4
f 18/40/5 34/75/5 33/76/5 17/41/5
f 31/14/2 47/77/2 46/78/2 30/15/2
f 54/59/9 56/62/9 55/79/9 53/80/9
f 41/23/7 70/81/7 71/66/7 39/65/7
f 28/7/5 17/41/5 33/76/5 44/29/5
f 58/82/9 53/80/9 55/79/9 57/83/9
f 19/45/2 68/84/2 67/85/2 21/36/2
f 23/37/3 39/65/3 40/25/3 24/56/3
f 47/30/10 76/86/10 77/87/10 46/88/10
f 24/2/1 40/89/1 38/90/1 22/3/1
f 46/78/2 45/71/2 29/10/2 30/15/2
f 30/15/11 29/10/11 26/91/11 27/92/11
f 41/23/3 39/65/3 23/37/3 25/24/3
f 25/24/11 23/37/11 21/36/11 26/33/11
f 21/36/5 67/85/5 65/63/5 26/33/5
f 27/6/11 19/45/11 17/41/11 28/7/11
f 38/90/1 36/18/1 20/17/1 22/3/1
f 22/53/11 20/46/11 19/45/11 21/36/11
f 50/93/9 52/94/9 51/95/9 49/96/9
f 57/83/9 64/97/9 61/67/9 58/82/9
f 59/98/9 62/70/9 63/99/9 60/100/9
f 60/100/9 49/96/9 51/95/9 59/98/9
f 53/80/9 51/95/9 52/94/9 54/59/9
f 59/98/9 58/82/9 61/67/9 62/70/9
f 65/63/11 67/85/11 68/84/11 66/64/11
f 59/98/9 51/95/9 53/80/9 58/82/9
f 34/75/12 42/101/12 43/102/12 33/76/12
f 62/70/8 78/69/8 75/103/8 63/99/8
f 49/96/13 80/104/13 79/105/13 50/93/13
f 60/100/13 88/106/13 80/104/13 49/96/13
f 27/6/3 66/64/3 68/84/3 19/45/3
f 45/107/10 83/108/10 82/109/10 48/22/10
f 72/110/1 84/111/1 87/112/1 73/113/1
f 71/66/3 74/114/3 84/115/3 72/26/3
f 73/113/1 87/112/1 35/116/1 37/117/1
f 70/81/3 69/118/3 74/114/3 71/66/3
f 76/119/2 75/120/2 78/121/2 77/122/2
f 42/101/5 79/123/5 80/124/5 43/102/5
f 83/125/2 85/126/2 86/127/2 82/128/2
f 43/102/5 80/124/5 88/129/5 81/130/5
f 77/122/2 78/121/2 85/126/2 83/125/2
f 81/130/5 88/129/5 75/131/5 76/86/5
f 82/109/3 86/132/3 69/118/3 70/81/3
f 37/117/1 35/116/1 79/133/1 42/134/1
f 33/76/12 43/102/12 81/130/12 44/29/12
f 63/99/13 75/103/13 88/106/13 60/100/13
f 56/62/14 84/61/14 74/135/14 55/79/14
f 52/94/6 35/136/6 87/60/6 54/59/6
f 46/88/10 77/87/10 83/108/10 45/107/10
f 44/29/12 81/130/12 76/86/12 47/30/12
f 57/83/14 69/137/14 86/138/14 64/97/14
f 50/93/6 79/105/6 35/136/6 52/94/6
f 48/22/7 82/109/7 70/81/7 41/23/7
f 55/79/14 74/135/14 69/137/14 57/83/14
f 36/74/4 37/73/4 42/101/4 34/75/4
f 64/97/8 86/138/8 85/68/8 61/67/8
